<svg class="absolute z-10 right-1 top-1 cursor-pointer" fill="#FF4444" width="25" height="25" viewBox="0 0 24 25" xmlns="http://www.w3.org/2000/svg"><path d="M20.8401 4.8462C20.3294 4.3352 19.7229 3.92985 19.0555 3.65328C18.388 3.37672 17.6726 3.23437 16.9501 3.23438C16.2276 3.23437 15.5122 3.37672 14.8448 3.65328C14.1773 3.92985 13.5709 4.3352 13.0601 4.8462L12.0001 5.9062L10.9401 4.8462C9.90843 3.81451 8.50915 3.23491 7.05012 3.23491C5.59109 3.23491 4.19181 3.81451 3.16012 4.8462C2.12843 5.87789 1.54883 7.27717 1.54883 8.7362C1.54883 10.1952 2.12843 11.5945 3.16012 12.6262L4.22012 13.6862L12.0001 21.4662L19.7801 13.6862L20.8401 12.6262C21.3511 12.1154 21.7565 11.509 22.033 10.8416C22.3096 10.1741 22.4519 9.45869 22.4519 8.7362C22.4519 8.01371 22.3096 7.2983 22.033 6.63085C21.7565 5.96339 21.3511 5.35696 20.8401 4.8462V4.8462Z" stroke="#FF4444" stroke-width="2" stroke-linecap="round" stroke-linejoin="round"></path></svg>